<mxfile host="app.diagrams.net" modified="2024-06-18T01:42:17.777Z" agent="Mozilla/5.0 (Windows NT 10.0; Win64; x64) AppleWebKit/537.36 (KHTML, like Gecko) Chrome/126.0.0.0 Safari/537.36" version="24.5.5" etag="bYcP1-3wfne011EhwEN5" type="github">
  <diagram name="PÃ¡gina-1" id="LXusyzGBxuOHFkzPc7N6">
    <mxGraphModel>
      <root>
        <mxCell id="0" />
        <mxCell id="1" parent="0" />
      </root>
    </mxGraphModel>
  </diagram>
</mxfile>
